<?xml version="1.0"?>
<svg version="1.1" xmlns="http://www.w3.org/2000/svg" width="400" height="50" style=""><path fill="#" d="M15.751953125,38.685546875q0-0.08203125,0.0546875-0.5810546875t0.1435546875-1.216796875t0.1982421875-1.544921875t0.19140625-1.5654296875t0.1435546875-1.298828125t0.0615234375-0.751953125q-0.109375-0.0546875-0.2666015625-0.1572265625t-0.1572265625-0.2392578125q0-0.19140625,0.1845703125-0.3076171875t0.3212890625-0.1708984375q0.0546875-0.697265625,0.13671875-1.94140625t0.2529296875-2.6865234375t0.478515625-2.92578125t0.8134765625-2.693359375t1.216796875-1.9755859375t1.75-0.765625t1.72265625,0.65625t1.1142578125,1.708984375t0.65625,2.337890625t0.341796875,2.556640625t0.1435546875,2.37890625t0.0546875,1.77734375q0.02734375,0.423828125,0.205078125,0.5673828125t0.3896484375,0.1982421875t0.3828125,0.123046875t0.1708984375,0.341796875q0,0.314453125-0.3828125,0.4375t-0.6015625,0.150390625q0.13671875,1.708984375,0.3759765625,3.36328125t0.6357421875,3.3359375q0.0546875,0.314453125,0.150390625,0.6357421875t0.095703125,0.6220703125q0,0.21875-0.150390625,0.3623046875t-0.3896484375,0.2255859375t-0.478515625,0.109375t-0.4033203125,0.02734375q-0.615234375,0-1.0390625-0.232421875t-0.560546875-0.888671875q-0.369140625-1.763671875-0.724609375-3.705078125q-0.30078125-1.681640625-0.30078125-3.267578125q0-0.24609375,0.013671875-0.4921875q-1.1484375,0-2.310546875,0.0546875t-2.228515625,0.41015625q-0.02734375,0.369140625-0.13671875,1.39453125t-0.24609375,2.201171875t-0.2802734375,2.2490234375t-0.1708984375,1.5244140625q-0.02734375,0.19140625-0.2802734375,0.3623046875t-0.546875,0.1845703125t-0.51953125-0.1845703125t-0.2255859375-0.7041015625z M18.30859375,30.400390625q1.06640625-0.24609375,2.1396484375-0.287109375t2.1669921875-0.095703125q-0.0546875-0.341796875-0.02734375-0.7041015625t0.02734375-0.7314453125q0-0.806640625-0.041015625-1.873046875t-0.123046875-2.16015625t-0.2119140625-2.1533203125t-0.2939453125-1.88671875t-0.3486328125-1.3193359375t-0.4033203125-0.4921875q-0.423828125,0.02734375-0.7998046875,0.7314453125t-0.68359375,1.791015625t-0.560546875,2.43359375t-0.423828125,2.6318359375t-0.2802734375,2.392578125t-0.13671875,1.72265625z M29.52869140625,33.626953125q0-0.984375,0.2529296875-1.9755859375t0.7861328125-1.77734375t1.3603515625-1.2783203125t1.9482421875-0.4921875q0.478515625,0,1.052734375,0.1162109375t1.0595703125,0.369140625t0.8203125,0.65625t0.3349609375,0.9912109375q0,0.369140625-0.19140625,0.4921875t-0.505859375,0.123046875l-0.095703125-0.13671875t-0.2666015625-0.3486328125t-0.3623046875-0.451171875t-0.369140625-0.4033203125q-0.560546875-0.560546875-1.052734375-0.6015625l-0.109375,0q-0.41015625,0-0.765625,0.24609375q-0.396484375,0.30078125-0.7041015625,0.84765625t-0.5126953125,1.162109375t-0.3212890625,1.244140625t-0.1162109375,1.0390625q0,0.560546875,0.1298828125,1.2783203125t0.4375,1.3603515625t0.779296875,1.080078125t1.2099609375,0.4375q0.669921875,0,1.216796875-0.328125t1.0458984375-0.7314453125t0.9775390625-0.724609375t0.984375-0.3212890625q0.21875,0,0.4443359375,0.0546875t0.2255859375,0.287109375l0,0.08203125q-0.24609375,0.642578125-0.833984375,1.134765625t-1.3193359375,0.8544921875t-1.517578125,0.5400390625t-1.4013671875,0.177734375q-1.1484375,0-2.0166015625-0.3759765625t-1.4423828125-1.0322265625t-0.8681640625-1.5791015625t-0.2939453125-2.0166015625z M41.4597265625,33.626953125q0-0.984375,0.2529296875-1.9755859375t0.7861328125-1.77734375t1.3603515625-1.2783203125t1.9482421875-0.4921875q0.478515625,0,1.052734375,0.1162109375t1.0595703125,0.369140625t0.8203125,0.65625t0.3349609375,0.9912109375q0,0.369140625-0.19140625,0.4921875t-0.505859375,0.123046875l-0.095703125-0.13671875t-0.2666015625-0.3486328125t-0.3623046875-0.451171875t-0.369140625-0.4033203125q-0.560546875-0.560546875-1.052734375-0.6015625l-0.109375,0q-0.41015625,0-0.765625,0.24609375q-0.396484375,0.30078125-0.7041015625,0.84765625t-0.5126953125,1.162109375t-0.3212890625,1.244140625t-0.1162109375,1.0390625q0,0.560546875,0.1298828125,1.2783203125t0.4375,1.3603515625t0.779296875,1.080078125t1.2099609375,0.4375q0.669921875,0,1.216796875-0.328125t1.0458984375-0.7314453125t0.9775390625-0.724609375t0.984375-0.3212890625q0.21875,0,0.4443359375,0.0546875t0.2255859375,0.287109375l0,0.08203125q-0.24609375,0.642578125-0.833984375,1.134765625t-1.3193359375,0.8544921875t-1.517578125,0.5400390625t-1.4013671875,0.177734375q-1.1484375,0-2.0166015625-0.3759765625t-1.4423828125-1.0322265625t-0.8681640625-1.5791015625t-0.2939453125-2.0166015625z M53.39076171875,34.4609375q0-0.95703125,0.2119140625-2.255859375t0.7177734375-2.4609375t1.3330078125-1.9755859375t2.0849609375-0.8134765625q1.17578125,0,1.763671875,0.6767578125t0.587890625,1.8251953125q0,0.751953125-0.2802734375,1.6474609375t-0.7998046875,1.6953125t-1.23046875,1.3330078125t-1.5859375,0.533203125l-0.35546875-0.02734375q0,0.369140625,0.109375,0.9912109375t0.3212890625,1.2373046875t0.546875,1.080078125t0.8134765625,0.46484375q0.697265625,0,1.33984375-0.560546875t1.216796875-1.244140625t1.06640625-1.244140625t0.90234375-0.560546875q0.21875,0,0.451171875,0.068359375t0.259765625,0.3828125q0,0.19140625-0.1025390625,0.314453125t-0.1845703125,0.2734375q-0.423828125,0.724609375-0.9228515625,1.380859375t-1.1279296875,1.189453125t-1.3740234375,0.8408203125t-1.6474609375,0.3076171875q-1.17578125,0-1.955078125-0.4169921875t-1.2578125-1.12109375t-0.6904296875-1.626953125t-0.2119140625-1.9345703125z M55.83802734375,33.421875l0.3828125,0.341796875q0.2734375,0.24609375,0.546875,0.109375t0.4921875-0.4990234375t0.4033203125-0.8955078125t0.328125-1.09375t0.2119140625-1.09375t0.068359375-0.888671875l0-0.46484375t-0.041015625-0.4921875t-0.1435546875-0.3896484375t-0.3212890625-0.1982421875q-0.068359375-0.013671875-0.123046875-0.013671875q-0.46484375,0-0.79296875,0.587890625q-0.35546875,0.65625-0.57421875,1.5927734375t-0.314453125,1.9208984375t-0.123046875,1.4765625z M64.8159375,30.373046875q0-0.560546875,0.328125-0.9638671875t0.7998046875-0.65625t1.0322265625-0.3759765625t1.0390625-0.123046875q0.369140625,0,0.984375,0.109375t1.203125,0.328125t1.0185546875,0.57421875t0.4306640625,0.833984375q0,0.21875-0.1640625,0.3896484375t-0.341796875,0.1708984375q-0.369140625,0-0.669921875-0.2392578125t-0.6220703125-0.505859375t-0.7041015625-0.505859375t-0.861328125-0.2392578125t-0.8681640625,0.3076171875t-0.3896484375,0.8134765625q0,0.833984375,0.587890625,1.6337890625t1.2919921875,1.681640625t1.2919921875,1.8525390625t0.587890625,2.146484375q0,0.505859375-0.2119140625,0.8544921875t-0.560546875,0.5673828125t-0.7861328125,0.3349609375t-0.84765625,0.1162109375q-0.451171875,0-1.052734375-0.2119140625t-1.134765625-0.560546875t-0.8955078125-0.8134765625t-0.3623046875-0.970703125q0-0.24609375,0.3486328125-0.314453125t0.5126953125-0.068359375q0.08203125,0,0.2529296875,0.0546875t0.3349609375,0.123046875t0.2939453125,0.150390625t0.1025390625,0.177734375q0.13671875,0.1640625,0.4169921875,0.4853515625t0.560546875,0.51953125t0.4921875,0.1435546875t0.2119140625-0.615234375q0-1.06640625-0.57421875-1.9619140625t-1.2509765625-1.75t-1.2509765625-1.6953125t-0.57421875-1.7978515625z M74.45009765625,30.373046875q0-0.560546875,0.328125-0.9638671875t0.7998046875-0.65625t1.0322265625-0.3759765625t1.0390625-0.123046875q0.369140625,0,0.984375,0.109375t1.203125,0.328125t1.0185546875,0.57421875t0.4306640625,0.833984375q0,0.21875-0.1640625,0.3896484375t-0.341796875,0.1708984375q-0.369140625,0-0.669921875-0.2392578125t-0.6220703125-0.505859375t-0.7041015625-0.505859375t-0.861328125-0.2392578125t-0.8681640625,0.3076171875t-0.3896484375,0.8134765625q0,0.833984375,0.587890625,1.6337890625t1.2919921875,1.681640625t1.2919921875,1.8525390625t0.587890625,2.146484375q0,0.505859375-0.2119140625,0.8544921875t-0.560546875,0.5673828125t-0.7861328125,0.3349609375t-0.84765625,0.1162109375q-0.451171875,0-1.052734375-0.2119140625t-1.134765625-0.560546875t-0.8955078125-0.8134765625t-0.3623046875-0.970703125q0-0.24609375,0.3486328125-0.314453125t0.5126953125-0.068359375q0.08203125,0,0.2529296875,0.0546875t0.3349609375,0.123046875t0.2939453125,0.150390625t0.1025390625,0.177734375q0.13671875,0.1640625,0.4169921875,0.4853515625t0.560546875,0.51953125t0.4921875,0.1435546875t0.2119140625-0.615234375q0-1.06640625-0.57421875-1.9619140625t-1.2509765625-1.75t-1.2509765625-1.6953125t-0.57421875-1.7978515625z M84.0842578125,33.572265625q0-1.2578125,0.2939453125-2.4677734375t0.4990234375-2.4130859375q0.0546875-0.314453125,0.4306640625-0.3896484375t0.6357421875-0.0751953125q0.451171875,0,0.724609375,0.13671875q0.109375,0.0546875,0.205078125,0.123046875t0.095703125,0.177734375q0,1.17578125-0.2802734375,2.296875t-0.2802734375,2.37890625q0,0.423828125,0.0615234375,0.7998046875t0.1162109375,0.7451171875l0.08203125,0.396484375q0,0.109375,0.013671875,0.19140625t0.041015625,0.19140625q0,0.24609375-0.3486328125,0.3349609375t-0.6083984375,0.0888671875q-0.396484375,0-0.7314453125-0.1572265625t-0.5263671875-0.5400390625l-0.19140625-0.396484375q-0.1640625-0.314453125-0.1640625-0.7041015625t-0.068359375-0.7177734375z M84.9592578125,25.341796875l0-0.259765625q0-0.642578125,0.3212890625-1.1484375t0.9638671875-0.505859375q0.08203125,0,0.1572265625,0.013671875t0.1572265625,0.013671875q0.1640625,0.02734375,0.4306640625,0.1298828125t0.2666015625,0.3212890625l0,0.02734375q-0.0546875,0.109375-0.068359375,0.2255859375t-0.068359375,0.1982421875l0.02734375-0.02734375q-0.1640625,0.423828125-0.2666015625,0.68359375t-0.2255859375,0.4169921875t-0.3076171875,0.2255859375t-0.5263671875,0.068359375q-0.0546875,0-0.19140625-0.013671875t-0.2939453125-0.0546875t-0.2666015625-0.109375t-0.109375-0.205078125z M90.05435546875,29.921875q0-0.95703125,0.0888671875-2.48828125t0.2119140625-3.158203125t0.3076171875-3.0830078125t0.4033203125-2.2353515625q0.08203125-0.341796875,0.3896484375-0.41015625t0.6220703125-0.068359375q0.423828125,0,0.7314453125,0.150390625t0.3076171875,0.65625q0,2.48828125-0.3076171875,4.9833984375t-0.3349609375,4.9833984375q0.423828125-0.642578125,1.09375-0.9638671875t1.421875-0.3212890625q1.0390625,0,1.791015625,0.423828125t1.216796875,1.09375t0.6904296875,1.5517578125t0.2255859375,1.7978515625q0,0.505859375-0.1025390625,1.2646484375t-0.3076171875,1.599609375t-0.51953125,1.66796875t-0.7451171875,1.4833984375t-0.9912109375,1.0595703125t-1.23046875,0.4033203125q-0.13671875,0-0.3623046875-0.041015625t-0.451171875-0.123046875t-0.3759765625-0.2119140625t-0.150390625-0.3212890625q0-0.21875,0.2666015625-0.3076171875t0.4306640625-0.0888671875q0.615234375-0.2734375,1.09375-1.1416015625t0.7998046875-1.9072265625t0.4853515625-2.0576171875t0.1640625-1.6611328125q0-0.369140625-0.109375-0.984375t-0.3349609375-1.216796875t-0.615234375-1.0390625t-0.9228515625-0.4375q-0.642578125,0-1.025390625,0.6630859375t-0.6015625,1.544921875t-0.2939453125,1.818359375t-0.0751953125,1.4697265625q0,0.341796875,0.1162109375,0.6767578125t0.2666015625,0.669921875t0.2666015625,0.68359375t0.1162109375,0.6904296875q0,0.1640625-0.1435546875,0.2734375t-0.3349609375,0.177734375t-0.4033203125,0.0888671875t-0.3212890625,0.0205078125q-0.779296875,0-1.080078125-0.369140625t-0.51953125-1.0390625q-0.478515625-1.517578125-0.6630859375-3.0830078125t-0.1845703125-3.1376953125z M101.711953125,38.75390625q0-0.396484375,0.0341796875-0.833984375t0.0615234375-0.8203125l0.08203125-2.05078125q0.13671875-2.4609375,0.3349609375-4.83984375t0.3349609375-4.8125q0.08203125-1.33984375,0.123046875-2.6318359375t0.123046875-2.6318359375q-0.0546875-0.109375-0.0546875-0.150390625q0-0.19140625,0.1435546875-0.30078125t0.3349609375-0.1845703125t0.4033203125-0.1025390625t0.3212890625-0.02734375l0.314453125,0q0.423828125,0.0546875,0.615234375,0.2666015625t0.24609375,0.505859375t0.02734375,0.62890625t-0.02734375,0.6220703125q0,1.982421875-0.095703125,4.0400390625t-0.21875,4.12890625t-0.2255859375,4.142578125t-0.1025390625,4.0947265625l0,0.95703125q0,0.642578125-0.3623046875,0.84765625t-1.0048828125,0.205078125q-0.560546875,0-0.984375-0.24609375t-0.423828125-0.806640625z M107.98283203125,34.4609375q0-0.95703125,0.2119140625-2.255859375t0.7177734375-2.4609375t1.3330078125-1.9755859375t2.0849609375-0.8134765625q1.17578125,0,1.763671875,0.6767578125t0.587890625,1.8251953125q0,0.751953125-0.2802734375,1.6474609375t-0.7998046875,1.6953125t-1.23046875,1.3330078125t-1.5859375,0.533203125l-0.35546875-0.02734375q0,0.369140625,0.109375,0.9912109375t0.3212890625,1.2373046875t0.546875,1.080078125t0.8134765625,0.46484375q0.697265625,0,1.33984375-0.560546875t1.216796875-1.244140625t1.06640625-1.244140625t0.90234375-0.560546875q0.21875,0,0.451171875,0.068359375t0.259765625,0.3828125q0,0.19140625-0.1025390625,0.314453125t-0.1845703125,0.2734375q-0.423828125,0.724609375-0.9228515625,1.380859375t-1.1279296875,1.189453125t-1.3740234375,0.8408203125t-1.6474609375,0.3076171875q-1.17578125,0-1.955078125-0.4169921875t-1.2578125-1.12109375t-0.6904296875-1.626953125t-0.2119140625-1.9345703125z M110.43009765625,33.421875l0.3828125,0.341796875q0.2734375,0.24609375,0.546875,0.109375t0.4921875-0.4990234375t0.4033203125-0.8955078125t0.328125-1.09375t0.2119140625-1.09375t0.068359375-0.888671875l0-0.46484375t-0.041015625-0.4921875t-0.1435546875-0.3896484375t-0.3212890625-0.1982421875q-0.068359375-0.013671875-0.123046875-0.013671875q-0.46484375,0-0.79296875,0.587890625q-0.35546875,0.65625-0.57421875,1.5927734375t-0.314453125,1.9208984375t-0.123046875,1.4765625z M124.73552734375,20.26953125q0-0.642578125,0.1572265625-0.9365234375t0.451171875-0.41015625t0.7109375-0.0888671875t0.9775390625,0.02734375q1.421875,0,2.87109375,0.4375t2.611328125,1.2783203125t1.873046875,2.0712890625t0.7109375,2.830078125q0,1.06640625-0.3076171875,2.0166015625t-0.8681640625,1.77734375t-1.3125,1.5107421875t-1.654296875,1.189453125q0.369140625,0.369140625,0.95703125,1.3056640625t1.162109375,1.99609375t1.0185546875,2.0576171875t0.5263671875,1.50390625l-0.1640625,0.24609375q-0.369140625,0.21875-0.888671875,0.232421875q-0.24609375,0-0.642578125-0.0615234375t-0.505859375-0.3623046875q-0.560546875-1.572265625-1.2236328125-3.240234375t-1.6337890625-3.0078125l0-0.02734375q-0.341796875,0.13671875-0.6767578125,0.2666015625t-0.6767578125,0.2392578125q0.109375,1.517578125,0.2255859375,2.9873046875t0.1162109375,2.9736328125q0,0.19140625-0.1845703125,0.3076171875t-0.4169921875,0.1845703125t-0.4716796875,0.095703125t-0.3896484375,0.02734375q-0.13671875,0-0.3896484375-0.02734375t-0.4853515625-0.095703125t-0.4033203125-0.1982421875t-0.1708984375-0.3486328125q0-1.517578125-0.068359375-3.0283203125t-0.150390625-3.0146484375q-0.423828125-0.2734375-0.423828125-0.7109375q0-0.341796875,0.328125-0.46484375q-0.1640625-2.884765625-0.3759765625-5.755859375t-0.2119140625-5.783203125z M127.21013671875,19.845703125q0.19140625,2.966796875,0.4306640625,5.865234375t0.4580078125,5.865234375q0.95703125-0.2734375,1.7841796875-0.9501953125t1.4287109375-1.5244140625t0.9365234375-1.845703125t0.3349609375-1.982421875q0-1.09375-0.4375-2.0986328125t-1.162109375-1.7568359375q-0.73828125-0.751953125-1.6953125-1.17578125q-0.84765625-0.369140625-1.77734375-0.369140625l-0.24609375,0z M137.89703125,34.4609375q0-0.95703125,0.2119140625-2.255859375t0.7177734375-2.4609375t1.3330078125-1.9755859375t2.0849609375-0.8134765625q1.17578125,0,1.763671875,0.6767578125t0.587890625,1.8251953125q0,0.751953125-0.2802734375,1.6474609375t-0.7998046875,1.6953125t-1.23046875,1.3330078125t-1.5859375,0.533203125l-0.35546875-0.02734375q0,0.369140625,0.109375,0.9912109375t0.3212890625,1.2373046875t0.546875,1.080078125t0.8134765625,0.46484375q0.697265625,0,1.33984375-0.560546875t1.216796875-1.244140625t1.06640625-1.244140625t0.90234375-0.560546875q0.21875,0,0.451171875,0.068359375t0.259765625,0.3828125q0,0.19140625-0.1025390625,0.314453125t-0.1845703125,0.2734375q-0.423828125,0.724609375-0.9228515625,1.380859375t-1.1279296875,1.189453125t-1.3740234375,0.8408203125t-1.6474609375,0.3076171875q-1.17578125,0-1.955078125-0.4169921875t-1.2578125-1.12109375t-0.6904296875-1.626953125t-0.2119140625-1.9345703125z M140.344296875,33.421875l0.3828125,0.341796875q0.2734375,0.24609375,0.546875,0.109375t0.4921875-0.4990234375t0.4033203125-0.8955078125t0.328125-1.09375t0.2119140625-1.09375t0.068359375-0.888671875l0-0.46484375t-0.041015625-0.4921875t-0.1435546875-0.3896484375t-0.3212890625-0.1982421875q-0.068359375-0.013671875-0.123046875-0.013671875q-0.46484375,0-0.79296875,0.587890625q-0.35546875,0.65625-0.57421875,1.5927734375t-0.314453125,1.9208984375t-0.123046875,1.4765625z M149.32220703125,30.373046875q0-0.560546875,0.328125-0.9638671875t0.7998046875-0.65625t1.0322265625-0.3759765625t1.0390625-0.123046875q0.369140625,0,0.984375,0.109375t1.203125,0.328125t1.0185546875,0.57421875t0.4306640625,0.833984375q0,0.21875-0.1640625,0.3896484375t-0.341796875,0.1708984375q-0.369140625,0-0.669921875-0.2392578125t-0.6220703125-0.505859375t-0.7041015625-0.505859375t-0.861328125-0.2392578125t-0.8681640625,0.3076171875t-0.3896484375,0.8134765625q0,0.833984375,0.587890625,1.6337890625t1.2919921875,1.681640625t1.2919921875,1.8525390625t0.587890625,2.146484375q0,0.505859375-0.2119140625,0.8544921875t-0.560546875,0.5673828125t-0.7861328125,0.3349609375t-0.84765625,0.1162109375q-0.451171875,0-1.052734375-0.2119140625t-1.134765625-0.560546875t-0.8955078125-0.8134765625t-0.3623046875-0.970703125q0-0.24609375,0.3486328125-0.314453125t0.5126953125-0.068359375q0.08203125,0,0.2529296875,0.0546875t0.3349609375,0.123046875t0.2939453125,0.150390625t0.1025390625,0.177734375q0.13671875,0.1640625,0.4169921875,0.4853515625t0.560546875,0.51953125t0.4921875,0.1435546875t0.2119140625-0.615234375q0-1.06640625-0.57421875-1.9619140625t-1.2509765625-1.75t-1.2509765625-1.6953125t-0.57421875-1.7978515625z M158.3958203125,25.21875q0-0.19140625,0.41015625-0.328125t0.9296875-0.2255859375t1.0048828125-0.1298828125t0.6630859375-0.068359375q0-0.369140625,0.02734375-0.7451171875t0.150390625-0.669921875t0.3896484375-0.4716796875t0.7451171875-0.177734375q0.396484375,0,0.6015625,0.095703125t0.4375,0.396484375q0.0546875,0.1640625,0.0546875,0.314453125l0,0.4580078125t-0.02734375,0.4716796875q0.505859375-0.0546875,1.0048828125-0.1298828125t1.0048828125-0.0751953125q0.369140625,0,0.505859375,0.013671875t0.2734375,0.328125q0.109375,0.314453125-0.2666015625,0.478515625t-0.90234375,0.24609375t-1.0458984375,0.123046875t-0.62890625,0.041015625q-0.1640625,2.3515625-0.3349609375,4.662109375t-0.1708984375,4.689453125q0,1.06640625,0.068359375,2.201171875t0.3828125,2.146484375q0.08203125,0.314453125,0.2734375,0.587890625t0.19140625,0.587890625q0,0.19140625-0.150390625,0.30078125t-0.3623046875,0.1845703125t-0.423828125,0.0888671875t-0.3486328125,0.013671875q-0.861328125,0-1.3125-0.642578125t-0.6494140625-1.5380859375t-0.2119140625-1.8388671875t-0.013671875-1.53125q0-1.203125,0.0478515625-2.4609375t0.1162109375-2.48828125t0.19140625-2.40625t0.287109375-2.1875q-0.478515625,0.0546875-0.9365234375,0.123046875t-0.9365234375,0.068359375q-0.109375,0-0.2939453125-0.013671875t-0.3486328125-0.068359375t-0.2802734375-0.150390625t-0.1162109375-0.2734375z M168.85029296875,33.900390625q0-0.9296875,0.2529296875-1.791015625t0.7587890625-1.5380859375t1.2646484375-1.080078125t1.7568359375-0.4033203125q0.615234375,0,1.3603515625,0.1845703125t1.4013671875,0.546875t1.09375,0.9228515625t0.4375,1.28515625q0,0.341796875-0.1162109375,0.51953125t-0.4716796875,0.177734375l-0.150390625-0.02734375q0.396484375,1.06640625,0.68359375,2.1875t0.560546875,2.2421875q0.109375,0.21875,0.1640625,0.3896484375t0.0546875,0.3349609375q0,0.21875-0.123046875,0.3623046875t-0.3212890625,0.2119140625t-0.41015625,0.095703125t-0.3759765625,0.02734375q-0.587890625,0-0.8818359375-0.205078125t-0.423828125-0.560546875t-0.1572265625-0.7998046875t-0.109375-0.8955078125q-0.1640625,0.533203125-0.4306640625,1.0390625t-0.62890625,0.9091796875t-0.8544921875,0.642578125t-1.107421875,0.2392578125q-0.90234375,0-1.517578125-0.51953125t-0.9912109375-1.2783203125t-0.546875-1.6201171875t-0.1708984375-1.599609375z M170.79169921875,33.708984375q0,0.505859375,0.068359375,1.06640625t0.2255859375,1.107421875t0.4033203125,1.0322265625t0.615234375,0.8544921875q0.669921875-0.724609375,0.9912109375-1.763671875t0.57421875-2.0029296875t0.57421875-1.654296875t0.9912109375-0.6904296875q0.423828125,0,0.7109375,0.150390625q-0.13671875-0.341796875-0.451171875-0.6630859375t-0.7041015625-0.587890625t-0.806640625-0.4375t-0.7861328125-0.1708984375q-0.109375,0-0.2529296875,0.0341796875t-0.2255859375,0.0068359375q-0.560546875,0.1640625-0.9228515625,0.5673828125t-0.587890625,0.9501953125t-0.3212890625,1.12109375t-0.095703125,1.080078125z M180.13875,32.697265625q0-0.2734375,0.0615234375-0.724609375t0.1435546875-0.8955078125t0.19140625-0.8271484375t0.259765625-0.4921875q0.109375-0.109375,0.3759765625-0.21875t0.560546875-0.1572265625t0.546875,0.041015625t0.3076171875,0.3623046875q-0.19140625,0.24609375-0.3486328125,0.8408203125t-0.2392578125,1.3193359375q-0.068359375,0.615234375-0.068359375,1.271484375l0,0.232421875q0.013671875,0.765625,0.13671875,1.408203125t0.3759765625,1.0595703125t0.7041015625,0.4169921875q0.95703125,0,1.75-0.8818359375t1.408203125-2.1533203125t1.080078125-2.7001953125t0.79296875-2.4951171875q0.08203125-0.314453125,0.3896484375-0.423828125t0.6630859375-0.0751953125t0.6357421875,0.1708984375t0.3349609375,0.328125q-0.2734375,2.296875-0.4306640625,4.59375t-0.1572265625,4.62109375q0,0.451171875,0.041015625,0.8271484375t-0.041015625,0.642578125t-0.3623046875,0.423828125t-0.8955078125,0.1572265625q-0.13671875,0-0.3486328125-0.02734375t-0.4375-0.0888671875t-0.3828125-0.1845703125t-0.1572265625-0.287109375q0-1.01171875,0.0751953125-2.078125t0.2119140625-2.064453125q-0.369140625,0.533203125-0.8134765625,1.0595703125t-0.9775390625,0.9501953125t-1.1484375,0.6767578125t-1.326171875,0.2529296875q-1.01171875,0-1.5927734375-0.478515625t-0.875-1.1962890625t-0.369140625-1.5654296875t-0.0751953125-1.640625z M192.99947265625,30.072265625q0-0.560546875,0.1982421875-0.943359375t0.8408203125-0.3828125q0.24609375,0,0.615234375,0.0751953125t0.423828125,0.3759765625q0.13671875,0.806640625,0.150390625,1.75t0.095703125,1.77734375q0.314453125-0.615234375,0.806640625-1.326171875t1.12109375-1.3125t1.3671875-0.998046875t1.50390625-0.396484375q0.0546875,0,0.205078125,0.041015625t0.2802734375,0.1162109375t0.1572265625,0.1708984375t-0.150390625,0.177734375q-0.0546875,0.1640625-0.232421875,0.1982421875t-0.314453125,0.0341796875q-0.08203125,0-0.259765625-0.068359375q-1.01171875,0.533203125-1.72265625,1.44921875t-1.162109375,2.0302734375t-0.65625,2.3515625t-0.205078125,2.4130859375q0,0.587890625-0.2666015625,0.7109375t-0.8544921875,0.123046875q-0.314453125,0-0.6630859375-0.068359375t-0.4853515625-0.4375q-0.24609375-0.779296875-0.4033203125-1.791015625t-0.2392578125-2.0849609375t-0.1162109375-2.1123046875t-0.0341796875-1.873046875z M202.7156640625,33.900390625q0-0.9296875,0.2529296875-1.791015625t0.7587890625-1.5380859375t1.2646484375-1.080078125t1.7568359375-0.4033203125q0.615234375,0,1.3603515625,0.1845703125t1.4013671875,0.546875t1.09375,0.9228515625t0.4375,1.28515625q0,0.341796875-0.1162109375,0.51953125t-0.4716796875,0.177734375l-0.150390625-0.02734375q0.396484375,1.06640625,0.68359375,2.1875t0.560546875,2.2421875q0.109375,0.21875,0.1640625,0.3896484375t0.0546875,0.3349609375q0,0.21875-0.123046875,0.3623046875t-0.3212890625,0.2119140625t-0.41015625,0.095703125t-0.3759765625,0.02734375q-0.587890625,0-0.8818359375-0.205078125t-0.423828125-0.560546875t-0.1572265625-0.7998046875t-0.109375-0.8955078125q-0.1640625,0.533203125-0.4306640625,1.0390625t-0.62890625,0.9091796875t-0.8544921875,0.642578125t-1.107421875,0.2392578125q-0.90234375,0-1.517578125-0.51953125t-0.9912109375-1.2783203125t-0.546875-1.6201171875t-0.1708984375-1.599609375z M204.6570703125,33.708984375q0,0.505859375,0.068359375,1.06640625t0.2255859375,1.107421875t0.4033203125,1.0322265625t0.615234375,0.8544921875q0.669921875-0.724609375,0.9912109375-1.763671875t0.57421875-2.0029296875t0.57421875-1.654296875t0.9912109375-0.6904296875q0.423828125,0,0.7109375,0.150390625q-0.13671875-0.341796875-0.451171875-0.6630859375t-0.7041015625-0.587890625t-0.806640625-0.4375t-0.7861328125-0.1708984375q-0.109375,0-0.2529296875,0.0341796875t-0.2255859375,0.0068359375q-0.560546875,0.1640625-0.9228515625,0.5673828125t-0.587890625,0.9501953125t-0.3212890625,1.12109375t-0.095703125,1.080078125z M214.57833984375,33.96875l0-0.396484375q0-0.4921875,0.02734375-0.9296875q0.02734375-0.615234375,0.02734375-1.01171875q0-0.21875,0.02734375-0.4990234375t0.13671875-0.4443359375q0.13671875-0.13671875,0.3212890625-0.2802734375t0.4033203125-0.1435546875q0.697265625,0,1.09375,0.1572265625t0.423828125,0.6494140625l0.0546875,0.423828125q0.24609375-0.587890625,0.65625-1.4560546875t0.9501953125-1.654296875t1.216796875-1.33984375t1.4287109375-0.5537109375q0.697265625,0,1.1484375,0.65625t0.7177734375,1.6748046875t0.3759765625,2.26953125t0.150390625,2.4541015625t0.0546875,2.1943359375t0.095703125,1.4970703125q0.0546875,0.423828125,0.1845703125,0.8955078125t0.1298828125,0.8681640625q0,0.109375-0.1572265625,0.2119140625t-0.3349609375,0.1708984375t-0.3623046875,0.109375t-0.2666015625,0.041015625q-0.533203125,0-0.7587890625-0.7998046875t-0.2802734375-2.0029296875t-0.0546875-2.6044921875t-0.095703125-2.6044921875t-0.3896484375-2.0029296875t-0.9365234375-0.8271484375q-0.587890625,0-1.216796875,0.7587890625t-1.080078125,2.0166015625q-0.4375,1.2578125-0.6015625,2.857421875q-0.0546875,0.505859375-0.0546875,1.01171875q0,1.107421875,0.232421875,2.21484375q0.02734375,0.19140625-0.1572265625,0.287109375t-0.4580078125,0.150390625t-0.5537109375,0.068359375t-0.4306640625,0.013671875q-0.533203125,0-0.8544921875-0.3759765625t-0.4990234375-0.9638671875t-0.2392578125-1.3193359375t-0.0751953125-1.4423828125z M226.441015625,25.21875q0-0.19140625,0.41015625-0.328125t0.9296875-0.2255859375t1.0048828125-0.1298828125t0.6630859375-0.068359375q0-0.369140625,0.02734375-0.7451171875t0.150390625-0.669921875t0.3896484375-0.4716796875t0.7451171875-0.177734375q0.396484375,0,0.6015625,0.095703125t0.4375,0.396484375q0.0546875,0.1640625,0.0546875,0.314453125l0,0.4580078125t-0.02734375,0.4716796875q0.505859375-0.0546875,1.0048828125-0.1298828125t1.0048828125-0.0751953125q0.369140625,0,0.505859375,0.013671875t0.2734375,0.328125q0.109375,0.314453125-0.2666015625,0.478515625t-0.90234375,0.24609375t-1.0458984375,0.123046875t-0.62890625,0.041015625q-0.1640625,2.3515625-0.3349609375,4.662109375t-0.1708984375,4.689453125q0,1.06640625,0.068359375,2.201171875t0.3828125,2.146484375q0.08203125,0.314453125,0.2734375,0.587890625t0.19140625,0.587890625q0,0.19140625-0.150390625,0.30078125t-0.3623046875,0.1845703125t-0.423828125,0.0888671875t-0.3486328125,0.013671875q-0.861328125,0-1.3125-0.642578125t-0.6494140625-1.5380859375t-0.2119140625-1.8388671875t-0.013671875-1.53125q0-1.203125,0.0478515625-2.4609375t0.1162109375-2.48828125t0.19140625-2.40625t0.287109375-2.1875q-0.478515625,0.0546875-0.9365234375,0.123046875t-0.9365234375,0.068359375q-0.109375,0-0.2939453125-0.013671875t-0.3486328125-0.068359375t-0.2802734375-0.150390625t-0.1162109375-0.2734375z M242.1409765625,38.685546875q0-0.08203125,0.0546875-0.5810546875t0.1435546875-1.216796875t0.1982421875-1.544921875t0.19140625-1.5654296875t0.1435546875-1.298828125t0.0615234375-0.751953125q-0.109375-0.0546875-0.2666015625-0.1572265625t-0.1572265625-0.2392578125q0-0.19140625,0.1845703125-0.3076171875t0.3212890625-0.1708984375q0.0546875-0.697265625,0.13671875-1.94140625t0.2529296875-2.6865234375t0.478515625-2.92578125t0.8134765625-2.693359375t1.216796875-1.9755859375t1.75-0.765625t1.72265625,0.65625t1.1142578125,1.708984375t0.65625,2.337890625t0.341796875,2.556640625t0.1435546875,2.37890625t0.0546875,1.77734375q0.02734375,0.423828125,0.205078125,0.5673828125t0.3896484375,0.1982421875t0.3828125,0.123046875t0.1708984375,0.341796875q0,0.314453125-0.3828125,0.4375t-0.6015625,0.150390625q0.13671875,1.708984375,0.3759765625,3.36328125t0.6357421875,3.3359375q0.0546875,0.314453125,0.150390625,0.6357421875t0.095703125,0.6220703125q0,0.21875-0.150390625,0.3623046875t-0.3896484375,0.2255859375t-0.478515625,0.109375t-0.4033203125,0.02734375q-0.615234375,0-1.0390625-0.232421875t-0.560546875-0.888671875q-0.369140625-1.763671875-0.724609375-3.705078125q-0.30078125-1.681640625-0.30078125-3.267578125q0-0.24609375,0.013671875-0.4921875q-1.1484375,0-2.310546875,0.0546875t-2.228515625,0.41015625q-0.02734375,0.369140625-0.13671875,1.39453125t-0.24609375,2.201171875t-0.2802734375,2.2490234375t-0.1708984375,1.5244140625q-0.02734375,0.19140625-0.2802734375,0.3623046875t-0.546875,0.1845703125t-0.51953125-0.1845703125t-0.2255859375-0.7041015625z M244.6976171875,30.400390625q1.06640625-0.24609375,2.1396484375-0.287109375t2.1669921875-0.095703125q-0.0546875-0.341796875-0.02734375-0.7041015625t0.02734375-0.7314453125q0-0.806640625-0.041015625-1.873046875t-0.123046875-2.16015625t-0.2119140625-2.1533203125t-0.2939453125-1.88671875t-0.3486328125-1.3193359375t-0.4033203125-0.4921875q-0.423828125,0.02734375-0.7998046875,0.7314453125t-0.68359375,1.791015625t-0.560546875,2.43359375t-0.423828125,2.6318359375t-0.2802734375,2.392578125t-0.13671875,1.72265625z M255.91771484375,33.736328125q0-1.06640625,0.2255859375-1.9345703125t0.7177734375-1.4697265625t1.2919921875-0.9365234375t1.9482421875-0.3349609375q0.642578125,0,1.3125,0.1708984375t1.1484375,0.6357421875q0-0.2734375,0.0546875-1.1279296875t0.13671875-1.9892578125t0.1708984375-2.37890625t0.1572265625-2.310546875t0.123046875-1.791015625t0.08203125-0.8203125q0.13671875-0.396484375,0.505859375-0.4716796875t0.697265625-0.0751953125q0.861328125,0,1.0595703125,0.2734375t0.1982421875,1.09375q0,2.994140625-0.2666015625,5.9609375t-0.2666015625,5.9609375q0,1.927734375,0.0751953125,3.8759765625t0.5400390625,3.8349609375l0.150390625,0.13671875l0.08203125,0.24609375l-0.205078125,0.314453125q-0.51953125,0.328125-1.203125,0.328125l-0.0546875,0q-0.697265625,0-1.28515625-0.328125q-0.21875-0.13671875-0.3623046875-0.8134765625t-0.2255859375-1.490234375t-0.123046875-1.5654296875t-0.068359375-1.06640625q-0.478515625,1.09375-1.3056640625,1.8798828125t-2.0849609375,0.7861328125q-0.984375,0-1.61328125-0.423828125t-0.9775390625-1.080078125t-0.4921875-1.4697265625t-0.1435546875-1.6201171875z M257.57201171875,33.818359375q0,0.314453125,0.0751953125,0.9296875t0.2392578125,1.23046875t0.4580078125,1.09375t0.7724609375,0.478515625q0.642578125-0.314453125,1.162109375-1.0458984375t0.8955078125-1.61328125t0.587890625-1.763671875t0.2119140625-1.5244140625q0-0.806640625-0.587890625-1.33984375t-1.408203125-0.533203125q-0.24609375,0-0.4990234375,0.095703125t-0.4716796875,0.21875q-0.505859375,0.478515625-0.7861328125,0.8681640625t-0.423828125,0.806640625t-0.1845703125,0.9228515625t-0.041015625,1.17578125z M268.299921875,28.814453125q0-0.109375,0.1298828125-0.1982421875t0.2939453125-0.1298828125t0.3349609375-0.0546875t0.2529296875-0.013671875q0.615234375,0,1.052734375,0.546875t0.7587890625,1.4013671875t0.546875,1.88671875t0.4306640625,2.0576171875t0.4033203125,1.8798828125t0.4443359375,1.3193359375q0.423828125-0.833984375,0.7724609375-2.009765625t0.642578125-2.43359375t0.51953125-2.4814453125t0.3623046875-2.1396484375q0.0546875-0.24609375,0.341796875-0.3076171875t0.478515625-0.0615234375q0.314453125,0,0.546875,0.0888671875t0.232421875,0.3896484375q0,0.505859375-0.123046875,1.3740234375t-0.3349609375,1.9482421875t-0.4921875,2.21484375t-0.6015625,2.1533203125t-0.669921875,1.8046875t-0.6904296875,1.1142578125q-0.1640625,0.19140625-0.5126953125,0.2666015625t-0.5810546875,0.0751953125q-0.806640625,0-1.33984375-0.423828125l0,0.02734375q-0.833984375-0.779296875-1.23046875-1.900390625t-0.57421875-2.337890625t-0.3212890625-2.419921875t-0.4853515625-2.1875q-0.0546875-0.109375-0.13671875-0.3212890625t-0.19140625-0.423828125t-0.1845703125-0.4033203125t-0.0751953125-0.30078125z M279.08251953125,33.572265625q0-1.2578125,0.2939453125-2.4677734375t0.4990234375-2.4130859375q0.0546875-0.314453125,0.4306640625-0.3896484375t0.6357421875-0.0751953125q0.451171875,0,0.724609375,0.13671875q0.109375,0.0546875,0.205078125,0.123046875t0.095703125,0.177734375q0,1.17578125-0.2802734375,2.296875t-0.2802734375,2.37890625q0,0.423828125,0.0615234375,0.7998046875t0.1162109375,0.7451171875l0.08203125,0.396484375q0,0.109375,0.013671875,0.19140625t0.041015625,0.19140625q0,0.24609375-0.3486328125,0.3349609375t-0.6083984375,0.0888671875q-0.396484375,0-0.7314453125-0.1572265625t-0.5263671875-0.5400390625l-0.19140625-0.396484375q-0.1640625-0.314453125-0.1640625-0.7041015625t-0.068359375-0.7177734375z M279.95751953125,25.341796875l0-0.259765625q0-0.642578125,0.3212890625-1.1484375t0.9638671875-0.505859375q0.08203125,0,0.1572265625,0.013671875t0.1572265625,0.013671875q0.1640625,0.02734375,0.4306640625,0.1298828125t0.2666015625,0.3212890625l0,0.02734375q-0.0546875,0.109375-0.068359375,0.2255859375t-0.068359375,0.1982421875l0.02734375-0.02734375q-0.1640625,0.423828125-0.2666015625,0.68359375t-0.2255859375,0.4169921875t-0.3076171875,0.2255859375t-0.5263671875,0.068359375q-0.0546875,0-0.19140625-0.013671875t-0.2939453125-0.0546875t-0.2666015625-0.109375t-0.109375-0.205078125z M285.0526171875,30.373046875q0-0.560546875,0.328125-0.9638671875t0.7998046875-0.65625t1.0322265625-0.3759765625t1.0390625-0.123046875q0.369140625,0,0.984375,0.109375t1.203125,0.328125t1.0185546875,0.57421875t0.4306640625,0.833984375q0,0.21875-0.1640625,0.3896484375t-0.341796875,0.1708984375q-0.369140625,0-0.669921875-0.2392578125t-0.6220703125-0.505859375t-0.7041015625-0.505859375t-0.861328125-0.2392578125t-0.8681640625,0.3076171875t-0.3896484375,0.8134765625q0,0.833984375,0.587890625,1.6337890625t1.2919921875,1.681640625t1.2919921875,1.8525390625t0.587890625,2.146484375q0,0.505859375-0.2119140625,0.8544921875t-0.560546875,0.5673828125t-0.7861328125,0.3349609375t-0.84765625,0.1162109375q-0.451171875,0-1.052734375-0.2119140625t-1.134765625-0.560546875t-0.8955078125-0.8134765625t-0.3623046875-0.970703125q0-0.24609375,0.3486328125-0.314453125t0.5126953125-0.068359375q0.08203125,0,0.2529296875,0.0546875t0.3349609375,0.123046875t0.2939453125,0.150390625t0.1025390625,0.177734375q0.13671875,0.1640625,0.4169921875,0.4853515625t0.560546875,0.51953125t0.4921875,0.1435546875t0.2119140625-0.615234375q0-1.06640625-0.57421875-1.9619140625t-1.2509765625-1.75t-1.2509765625-1.6953125t-0.57421875-1.7978515625z M294.41333984375,34.16015625q0-0.779296875,0.1982421875-1.6064453125t0.62890625-1.490234375t1.0869140625-1.080078125t1.5859375-0.4169921875q0.697265625,0,1.4697265625,0.2392578125t1.4150390625,0.68359375t1.0458984375,1.0869140625t0.4033203125,1.435546875q0,0.95703125-0.3486328125,1.818359375t-0.9775390625,1.5380859375t-1.4697265625,1.06640625t-1.8251953125,0.3896484375q-0.806640625,0-1.408203125-0.2939453125t-1.0048828125-0.7861328125t-0.6015625-1.162109375t-0.1982421875-1.421875z M296.42310546875,34.1328125q0,0.24609375,0.0751953125,0.724609375t0.2255859375,0.9365234375t0.3896484375,0.79296875t0.5810546875,0.3076171875q0.724609375-0.08203125,1.1962890625-0.4716796875t0.765625-0.9501953125t0.41015625-1.216796875t0.1162109375-1.244140625q0-0.751953125-0.2939453125-1.2578125t-0.9638671875-0.8203125q0,0.02734375,0.02734375,0.02734375t0.02734375-0.02734375l-0.341796875-0.08203125q-0.13671875-0.0546875-0.3349609375-0.123046875t-0.3896484375-0.30078125q-0.533203125,0.19140625-0.8271484375,0.4921875t-0.4443359375,0.7314453125t-0.1845703125,1.0322265625t-0.0341796875,1.44921875z M304.772109375,30.072265625q0-0.560546875,0.1982421875-0.943359375t0.8408203125-0.3828125q0.24609375,0,0.615234375,0.0751953125t0.423828125,0.3759765625q0.13671875,0.806640625,0.150390625,1.75t0.095703125,1.77734375q0.314453125-0.615234375,0.806640625-1.326171875t1.12109375-1.3125t1.3671875-0.998046875t1.50390625-0.396484375q0.0546875,0,0.205078125,0.041015625t0.2802734375,0.1162109375t0.1572265625,0.1708984375t-0.150390625,0.177734375q-0.0546875,0.1640625-0.232421875,0.1982421875t-0.314453125,0.0341796875q-0.08203125,0-0.259765625-0.068359375q-1.01171875,0.533203125-1.72265625,1.44921875t-1.162109375,2.0302734375t-0.65625,2.3515625t-0.205078125,2.4130859375q0,0.587890625-0.2666015625,0.7109375t-0.8544921875,0.123046875q-0.314453125,0-0.6630859375-0.068359375t-0.4853515625-0.4375q-0.24609375-0.779296875-0.4033203125-1.791015625t-0.2392578125-2.0849609375t-0.1162109375-2.1123046875t-0.0341796875-1.873046875z M314.77541015625,40.23046875q0.02734375-0.02734375,0.177734375-0.1982421875t0.3623046875-0.4169921875t0.478515625-0.5537109375t0.5537109375-0.6220703125q0.642578125-0.724609375,1.421875-1.654296875q0.369140625-0.24609375,0.90234375-0.24609375q0.341796875,0,0.587890625,0.08203125t0.46484375,0.396484375q-0.02734375,0.13671875-0.3896484375,0.697265625t-0.8203125,1.189453125t-0.8955078125,1.1484375t-0.546875,0.6015625q-0.451171875,0.2734375-1.0390625,0.2734375q-0.314453125,0-0.6904296875-0.068359375t-0.5673828125-0.341796875l0-0.287109375z M328.13748046875,21.103515625q0-0.1640625,0.1572265625-0.24609375t0.341796875-0.123046875t0.3349609375-0.041015625l0.150390625,0q0.478515625,0,0.6904296875,0.21875t0.5126953125,0.560546875q2.05078125,2.966796875,3.759765625,6.1044921875t3.294921875,6.3505859375q0.13671875-3.74609375,0.2802734375-7.5400390625t0.3623046875-7.5263671875q0-0.1640625,0.1572265625-0.2734375t0.35546875-0.1640625t0.4033203125-0.068359375t0.314453125-0.013671875q0.1640625,0,0.3623046875,0.013671875t0.396484375,0.08203125t0.328125,0.1640625t0.1298828125,0.259765625q0.0546875,0.587890625,0.0615234375,1.1826171875t0.0068359375,1.1826171875q0,4.40234375-0.19140625,8.626953125t-0.19140625,8.53125l0,0.984375q0,0.0546875-0.0546875,0.1640625q0.02734375,0.109375,0.08203125,0.2392578125t0.0546875,0.1845703125q0,0.21875-0.2255859375,0.328125t-0.4921875,0.1708984375t-0.4716796875,0.0615234375t-0.150390625,0q-0.697265625,0-1.17578125-0.3828125t-0.478515625-0.916015625q-1.01171875-2.26953125-2.0166015625-4.5048828125t-2.0986328125-4.4501953125q-0.697265625-1.39453125-1.4013671875-2.7958984375t-1.5107421875-2.7138671875q0.02734375,0.02734375,0.02734375,0.08203125q0.13671875,1.3671875,0.2939453125,2.7275390625t0.2392578125,2.7275390625q0.0546875,1.17578125,0.123046875,2.37890625t0.21875,2.37890625q0,0.451171875-0.2802734375,0.57421875t-0.6494140625,0.123046875q-0.314453125,0-0.5947265625-0.08203125t-0.3349609375-0.41015625q0-1.2578125-0.095703125-2.6728515625t-0.177734375-2.8505859375q-0.13671875-1.900390625-0.3623046875-3.8623046875t-0.2255859375-3.8349609375q0-0.08203125,0.013671875-0.1708984375t0.013671875-0.1982421875q-0.08203125-0.13671875-0.1845703125-0.287109375t-0.1025390625-0.2734375z M343.349765625,25.861328125q0-0.533203125,0.0341796875-1.5654296875t0.1025390625-2.1533203125t0.177734375-2.0986328125t0.314453125-1.4013671875q0.109375-0.21875,0.3349609375-0.2939453125t0.4443359375-0.0751953125q0.13671875,0,0.4580078125,0.0751953125t0.3212890625,0.2939453125q0,0.341796875-0.08203125,1.2919921875t-0.150390625,2.1806640625t-0.095703125,2.556640625l0,0.587890625q0,0.998046875,0.068359375,1.873046875q0.095703125,1.12109375,0.3623046875,1.845703125t0.7998046875,0.724609375q0.724609375,0,1.353515625-0.4306640625t1.1484375-1.12109375t0.9365234375-1.544921875t0.7109375-1.681640625t0.4921875-1.5244140625t0.2802734375-1.09375q0.08203125-0.451171875,0.1435546875-1.203125t0.1982421875-1.4765625t0.4853515625-1.2578125t1.0185546875-0.533203125q0.396484375,0,0.7587890625,0.13671875t0.4716796875,0.587890625q-0.21875,0.833984375-0.369140625,2.3173828125t-0.2392578125,3.1103515625t-0.1298828125,3.1513671875t-0.041015625,2.4814453125q0,1.06640625,0.02734375,2.6044921875t0.095703125,3.1787109375t0.1572265625,3.1923828125t0.1982421875,2.5908203125q0.109375,0.21875,0.109375,0.505859375q0,0.341796875-0.13671875,0.533203125t-0.3759765625,0.287109375t-0.51953125,0.123046875t-0.5400390625,0.02734375q-0.396484375,0-0.8818359375-0.13671875t-0.5947265625-0.560546875q-0.13671875-0.505859375-0.2255859375-1.3330078125t-0.1298828125-1.8046875t-0.068359375-2.0439453125t-0.02734375-2.0439453125t0.013671875-1.818359375t0.013671875-1.3740234375q0-1.0390625,0.041015625-2.0439453125t0.095703125-2.0439453125q-0.341796875,0.697265625-0.7998046875,1.4150390625t-1.0458984375,1.3056640625t-1.3125,0.9638671875t-1.572265625,0.3759765625q-1.09375,0-1.66796875-0.587890625t-0.833984375-1.4560546875t-0.2939453125-1.845703125t-0.0341796875-1.7705078125z M357.23587890625,34.638671875q0-2.966796875,0.2666015625-5.9404296875t1.1142578125-5.8583984375q0.24609375-0.861328125,0.642578125-1.7021484375t0.970703125-1.4970703125t1.3671875-1.06640625t1.88671875-0.41015625l0.287109375,0.02734375q1.17578125,0.1640625,1.736328125,0.9501953125t0.560546875,1.9619140625q0,0.314453125-0.0751953125,0.7861328125t-0.2392578125,0.9091796875t-0.4443359375,0.7451171875t-0.7041015625,0.3076171875q-0.19140625-0.02734375-0.3486328125-0.068359375t-0.2939453125-0.177734375q0.21875-0.478515625,0.3896484375-0.998046875t0.1708984375-1.189453125q0-0.24609375-0.041015625-0.62890625t-0.1572265625-0.7587890625t-0.3076171875-0.65625t-0.533203125-0.2802734375q-0.861328125,0-1.44921875,0.9638671875t-0.984375,2.4609375t-0.587890625,3.30859375t-0.2939453125,3.5t-0.1162109375,3.048828125t-0.013671875,1.9208984375q0,0.65625-0.013671875,1.44921875l0,0.177734375q0.013671875,0.697265625,0.095703125,1.326171875q0.109375,0.7109375,0.423828125,1.23046875t0.984375,0.6015625q0.205078125,0.02734375,0.396484375,0.02734375q0.79296875,0,1.435546875-0.451171875q0.79296875-0.560546875,1.408203125-1.4560546875t1.09375-1.96875t0.8818359375-2.0302734375t0.7861328125-1.5859375t0.79296875-0.62890625q0.13671875,0,0.41015625,0.0546875t0.2734375,0.259765625q0,0.0546875-0.02734375,0.150390625t-0.068359375,0.150390625q-0.369140625,1.44921875-0.9365234375,3.0078125t-1.44921875,2.8369140625t-2.16015625,2.0849609375t-3.0693359375,0.806640625q-1.28515625,0-2.0849609375-0.4853515625t-1.23046875-1.298828125t-0.587890625-1.8388671875t-0.1572265625-2.078125z"/><path fill="#" d=""/></svg>
